<svg xmlns="http://www.w3.org/2000/svg" viewBox="0 0 500 76.88"><defs><style>.cls-1{fill:#0075fc;}.cls-2{fill:#fff;}</style></defs><title>CentriXNodes 01</title><g id="Layer_2" data-name="Layer 2"><g id="Layer_1-2" data-name="Layer 1"><path class="cls-1" d="M63.51,42.61l-.13-.12-.2-.16L58,38l2.37-2,3-2.51.14-.12a7.09,7.09,0,0,0,0-10.86L52.2,13A2,2,0,0,0,51,12.59a1.9,1.9,0,0,0-1.23.45l-4,3.4A1.91,1.91,0,0,0,45,17.91a1.93,1.93,0,0,0,.69,1.48L47.54,21,54.76,27a1.26,1.26,0,0,1,0,1.91L41.56,40l-3,2.51-3,2.52L33,47.15l-5.55-4.66L22.11,38l9.46-7.94a1.25,1.25,0,0,1,.8-.29,1.21,1.21,0,0,1,.77.27l4,3.1a1.92,1.92,0,0,0,1.18.41,2,2,0,0,0,1.24-.45l4-3.39a1.91,1.91,0,0,0,.68-1.5,1.89,1.89,0,0,0-.73-1.48l-7.83-6.16a5.55,5.55,0,0,0-7,.11l-3,2.48-5.41,4.53L18.5,29.21l-3.43,2.87-2.56-2.14-1.23-1a1.23,1.23,0,0,1-.44-1,1.26,1.26,0,0,1,.44-.95l4.23-3.55,5.54-4.64h0l.07,0,8.43-7.07,2.68-2.25a1.29,1.29,0,0,1,.8-.29,1.31,1.31,0,0,1,.8.29l3.93,3.31a1.93,1.93,0,0,0,2.48,0l4-3.4a1.94,1.94,0,0,0,0-2.95L42.54,4.93l0,0L39.44,2.34a10,10,0,0,0-12.84,0L23.46,5V5L13.36,13.44l-1.72,1.44-3,2.51-3,2.51-3,2.5-.15.12a7.1,7.1,0,0,0,0,10.88l.12.09L8,38l-5.36,4.5-.13.11a7.08,7.08,0,0,0-.11,10.77h0l3.23,2.71.18.15,2.7,2.27h0L26.6,73.66l1.87,1.56a7.07,7.07,0,0,0,9.1,0l1.87-1.56,3-2.51,3-2.51,9-7.53,3-2.51,3-2.52,2.8-2.35h0l.32-.27a7.08,7.08,0,0,0,0-10.85ZM47.54,55l-.24.21-2.75,2.31-8.78,7.36h0l-1.95,1.64a1.26,1.26,0,0,1-.79.29,1.23,1.23,0,0,1-.8-.29l-16.71-14-.12-.09L11.28,49a1.23,1.23,0,0,1,0-1.9l1.24-1,2.55-2.14L17.51,46h0l2.9,2.43,8.05,6.76a7.08,7.08,0,0,0,9.11,0l1.87-1.56,3-2.52,3-2.5,3-2.52L51,43.9,53.52,46l1.24,1a1.26,1.26,0,0,1,.44,1,1.22,1.22,0,0,1-.44.94l-1.24,1-.22.19Z"/><path class="cls-2" d="M114.14,32.51A13,13,0,0,0,110,29.05a10,10,0,0,0-4.73-1.27,9.27,9.27,0,0,0-3.82.79,9.42,9.42,0,0,0-3.1,2.18,9.59,9.59,0,0,0-2,3.31,12.48,12.48,0,0,0,0,8.3,9.77,9.77,0,0,0,2,3.33,9.34,9.34,0,0,0,6.92,3,10.54,10.54,0,0,0,4.6-1.14,15.05,15.05,0,0,0,4.25-3.08l5.45,5.75a21.51,21.51,0,0,1-4.38,3.54,21.89,21.89,0,0,1-5.11,2.31,18.3,18.3,0,0,1-5.32.82,19.43,19.43,0,0,1-7.43-1.4,17.94,17.94,0,0,1-5.93-3.92,18.18,18.18,0,0,1-3.94-5.9,18.61,18.61,0,0,1-1.43-7.36,18.08,18.08,0,0,1,1.43-7.25,17.45,17.45,0,0,1,4-5.83,18.47,18.47,0,0,1,6.08-3.87A20.52,20.52,0,0,1,105.14,20a19.74,19.74,0,0,1,5.29.74,20.9,20.9,0,0,1,5,2.11,18.63,18.63,0,0,1,4.12,3.26Z"/><path class="cls-2" d="M123.56,20.55H151.7v7.33H132.87V34.7h17V42h-17V48.9h19.34v7.33H123.56Z"/><path class="cls-2" d="M157.91,20.55h8.19l18.68,24.94-2.44.81V20.55h8.6V56.23h-8.15L164.12,31.39l2.49-.81V56.23h-8.7Z"/><path class="cls-2" d="M194.8,20.55h30.59v7.53H214.7V56.23h-9.31V28.08H194.8Z"/><path class="cls-2" d="M245.19,20.55q7.13,0,11,3.28t3.87,9.24q0,6.26-3.87,9.74t-11,3.49h-6.72v9.93h-9.31V20.55Zm0,18.42a6.35,6.35,0,0,0,4.42-1.42,5.38,5.38,0,0,0,1.58-4.23,5.1,5.1,0,0,0-1.58-4.07,6.53,6.53,0,0,0-4.42-1.37h-6.72V39Zm-1.63,3.92h9.06l8.5,13.34H250.58Z"/><path class="cls-2" d="M266,20.55h9.32V56.23H266Z"/><path class="cls-1" d="M279.79,20.55h10.84l6.67,10.23L304,20.55h11L303.25,37.6,316,56.23H304.88L297.3,45.08l-7.43,11.15H279l12.67-18.17Z"/><path class="cls-2" d="M321,20.6h5.91l20.61,28.25-1.53.51V20.6h5.91V56.23H346L325.44,28l1.58-.51V56.23h-6Z"/><path class="cls-2" d="M377.25,20.24a19.73,19.73,0,0,1,7.41,1.38,18,18,0,0,1,6,3.87,18.28,18.28,0,0,1,4,5.77,17.34,17.34,0,0,1,1.45,7.1,17.65,17.65,0,0,1-1.45,7.15,18.2,18.2,0,0,1-4,5.83,18.54,18.54,0,0,1-6,3.89,20.28,20.28,0,0,1-14.81,0,18.58,18.58,0,0,1-6-3.89,18.2,18.2,0,0,1-4-5.83,17.65,17.65,0,0,1-1.45-7.15,17.47,17.47,0,0,1,1.45-7.12,18,18,0,0,1,4-5.78,18.45,18.45,0,0,1,6-3.84A19.64,19.64,0,0,1,377.25,20.24Zm.05,5.09a12.32,12.32,0,0,0-5,1,12.88,12.88,0,0,0-6.87,6.92,13.63,13.63,0,0,0,0,10.25,13.43,13.43,0,0,0,2.8,4.2,13.15,13.15,0,0,0,4.1,2.83,12.44,12.44,0,0,0,9.82,0,12.49,12.49,0,0,0,4.05-2.83A13.4,13.4,0,0,0,390,38.36a13.11,13.11,0,0,0-1-5.11,13.28,13.28,0,0,0-2.72-4.15,12.33,12.33,0,0,0-4.05-2.77A12.18,12.18,0,0,0,377.3,25.33Z"/><path class="cls-2" d="M417.15,20.6a20,20,0,0,1,7.38,1.32,17.74,17.74,0,0,1,5.83,3.72,17.05,17.05,0,0,1,3.84,5.65,18.25,18.25,0,0,1,1.37,7.12,18,18,0,0,1-1.37,7.1,17.14,17.14,0,0,1-3.87,5.65,17.42,17.42,0,0,1-5.9,3.74A20.23,20.23,0,0,1,417,56.23H402.54V20.6Zm.15,30.48a12.48,12.48,0,0,0,4.81-.91A11.29,11.29,0,0,0,426,47.55a12.41,12.41,0,0,0,2.59-4,14,14,0,0,0,0-10.18,13.1,13.1,0,0,0-2.65-4.05A11.39,11.39,0,0,0,422,26.66a13,13,0,0,0-4.91-.92h-8.5V51.08Z"/><path class="cls-2" d="M442,20.6h25.45v5.14H448v10h17.4v5.09H448V51.08H468v5.15H442Z"/><path class="cls-2" d="M497.05,28.85a21,21,0,0,0-7.38-3,17.52,17.52,0,0,0-3.05-.3,7.7,7.7,0,0,0-4.23,1,3.3,3.3,0,0,0-1.58,2.95,3.91,3.91,0,0,0,1.05,2.82,7.53,7.53,0,0,0,2.75,1.78c1.13.46,2.39.89,3.76,1.3s2.74.86,4.1,1.35a16.83,16.83,0,0,1,3.76,1.91,8.63,8.63,0,0,1,2.75,3,9.15,9.15,0,0,1,1,4.55,8.9,8.9,0,0,1-1.73,5.47,11.13,11.13,0,0,1-4.76,3.59,17.77,17.77,0,0,1-6.95,1.27,19.84,19.84,0,0,1-5.44-.74,22.81,22.81,0,0,1-5-2A20.68,20.68,0,0,1,472,50.88l2.6-4.93a21.49,21.49,0,0,0,3.89,2.84,18.87,18.87,0,0,0,4.17,1.79,14.69,14.69,0,0,0,4,.61A8.55,8.55,0,0,0,491.58,50a3.93,3.93,0,0,0,1.75-3.41,4,4,0,0,0-1-2.88,8.08,8.08,0,0,0-2.75-1.81,33,33,0,0,0-3.76-1.27c-1.38-.37-2.75-.8-4.13-1.3a17.78,17.78,0,0,1-3.76-1.85,8.61,8.61,0,0,1-2.75-2.91,8.77,8.77,0,0,1-1-4.52,8.54,8.54,0,0,1,1.63-5.22,10.5,10.5,0,0,1,4.55-3.44,17.62,17.62,0,0,1,6.79-1.22,22.34,22.34,0,0,1,6.72,1,22.89,22.89,0,0,1,5.75,2.65Z"/></g></g></svg>