<svg xmlns="http://www.w3.org/2000/svg" viewBox="0 0 343.6 400"><defs><style>.cls-1{fill:#fff;}</style></defs><title>Favicon 02</title><g id="Layer_2" data-name="Layer 2"><g id="Layer_1-2" data-name="Layer 1"><path class="cls-1" d="M330.45,221.68l-.69-.58-1-.84-26.91-22.57,12.33-10.34,15.53-13,.72-.6a36.89,36.89,0,0,0,0-56.51L271.59,67.86a10,10,0,0,0-12.85,0L237.66,85.53a10,10,0,0,0,0,15.34l9.69,8.11L284.9,140.5a6.46,6.46,0,0,1,0,9.9L216.23,208l-15.59,13.05-15.56,13.08L171.8,245.31l-28.86-24.23L115,197.67l49.23-41.31a6.48,6.48,0,0,1,4.16-1.52,6.37,6.37,0,0,1,4,1.39L193,172.37a10,10,0,0,0,12.61-.2l21-17.64a10,10,0,0,0-.25-15.53l-40.76-32a28.85,28.85,0,0,0-36.39.59l-15.37,12.9L105.7,144.05,96.26,152l-17.85,15L65.09,155.78l-6.41-5.38a6.47,6.47,0,0,1,0-9.91l22-18.46L109.5,97.87l0,0,.34-.25,43.85-36.77,14-11.7a6.46,6.46,0,0,1,8.3,0l20.49,17.19a10,10,0,0,0,12.86,0l21.07-17.68a10,10,0,0,0,0-15.33l-9.12-7.65-.16-.13-16-13.36a52,52,0,0,0-66.82,0l-16.3,13.68-.09.06-52.48,44-8.94,7.52L45,90.49,29.45,103.56l-15.51,13-.78.63a36.91,36.91,0,0,0,.1,56.59l.63.49,27.89,23.42L13.91,221.07l-.71.59a36.87,36.87,0,0,0-.58,56v0l16.83,14.11.92.75,14.05,11.81,0,0,94,78.86,9.72,8.14a36.88,36.88,0,0,0,47.37,0l9.73-8.14,15.56-13.07,15.56-13.05L283,317.94l15.57-13.05,15.56-13.08,14.57-12.22h.07l1.64-1.43a36.88,36.88,0,0,0,0-56.48Zm-83.1,64.7-1.27,1.08-14.29,12-45.7,38.33h0l-10.13,8.5a6.43,6.43,0,0,1-8.29,0l-86.95-73-.61-.5-21.42-18a6.46,6.46,0,0,1,0-9.89l6.44-5.42,13.29-11.14,12.7,10.65v0l15.08,12.65,41.88,35.15a36.87,36.87,0,0,0,47.41,0l9.73-8.14,15.56-13.07,15.56-13.05,15.56-13.08,13.29-11.13,13.28,11.13,6.44,5.42a6.44,6.44,0,0,1,0,9.89l-6.43,5.4-1.13,1Z"/></g></g></svg>